<?xml version="1.0" encoding="UTF-8"?>
<svg width="404px" height="136px" viewBox="0 0 404 136" version="1.1" xmlns="http://www.w3.org/2000/svg" xmlns:xlink="http://www.w3.org/1999/xlink">
    <title>logo-snapgene-dotmatics</title>
    <g id="Page-1" stroke="none" stroke-width="1" fill="none" fill-rule="evenodd">
        <g id="logo-snapgene" fill-rule="nonzero">
            <path d="M35.6622601,10.0497512 L35.6622601,61.1723989 L35.6622601,61.1723989 C35.6622601,76.9024444 27.7373135,100.497512 19.8123668,100.497512 C11.8874201,100.497512 3.96247333,76.9024444 3.96247333,61.1723989 L3.96247333,10.0497512 L3.96247333,10.0497512 L35.6622601,10.0497512 Z M37.0159121,0 C38.4567245,0 39.6247335,1.18100012 39.6247335,2.6378376 L39.6247335,3.01492535 C48.0609053,3.01492535 52.502772,6.77012665 52.502772,14.0696517 L52.502772,14.0696517 L52.8658057,14.0696517 C54.3066178,14.0696517 55.474627,15.2506519 55.474627,16.7074893 L55.474627,45.6009684 C55.474627,47.0578057 54.3066178,48.238806 52.8658057,48.238806 L50.1585015,48.238806 C48.7176894,48.238806 47.5496801,47.0578057 47.5496801,45.6009684 L47.5496801,16.7074893 C47.5496801,15.2506519 48.7176894,14.0696517 50.1585015,14.0696517 L50.5215352,14.0696517 C50.5215352,7.96950849 47.0384552,5.02487562 39.6247335,5.02487562 L39.6247335,5.02487562 L39.6247335,5.40196337 C39.6247335,6.85880085 38.4567245,8.03980098 37.0159121,8.03980098 L2.60882139,8.03980098 C1.16800912,8.03980098 0,6.85880085 0,5.40196337 L0,2.6378376 C0,1.18100012 1.16800912,0 2.60882139,0 L37.0159121,0 Z M64.1256408,18.0895522 C67.0072653,18.0895522 69.3432836,20.4515525 69.3432836,23.3652274 L69.3432836,38.9432303 C69.3432836,41.8569053 67.0072653,44.2189056 64.1256408,44.2189056 L57.4558636,44.2189056 L57.4558636,18.0895522 L64.1256408,18.0895522 Z" id="Combined-Shape" fill="#14BDC8"></path>
            <path d="M85.4228856,75.831333 L90.7353632,69.1212923 C93.3382768,71.4009971 95.8451439,73.0677374 98.2560393,74.1215629 C100.666935,75.1753888 103.216472,75.7022938 105.904727,75.7022938 C108.678324,75.7022938 110.897167,75.1861419 112.561325,74.1538227 C114.225483,73.1215038 115.05755,71.745099 115.05755,70.0245671 C115.05755,68.4760885 114.492172,67.2717342 113.361397,66.4114682 C112.230623,65.5512024 110.342472,64.9060127 107.696888,64.4758796 L98.8000883,62.9274086 C94.9597238,62.2822092 92.0474911,60.9273107 90.0633026,58.8626725 C88.0791145,56.7980344 87.0870352,54.1312499 87.0870352,50.8622394 C87.0870352,46.6469364 88.6764956,43.3134559 91.8554638,40.8616982 C95.0344323,38.4099402 99.3334425,37.1840796 104.752624,37.1840796 C107.995598,37.1840796 111.270526,37.7432442 114.577507,38.8615898 C117.884487,39.9799355 120.775385,41.5283911 123.250287,43.5070025 L118.257838,50.4751217 C115.868278,48.6255499 113.521423,47.2598983 111.217205,46.3781256 C108.912986,45.4963532 106.544797,45.0554736 104.112566,45.0554736 C101.637664,45.0554736 99.6535059,45.5178596 98.1600307,46.4426455 C96.6665556,47.3674314 95.9198293,48.6040449 95.9198293,50.1525236 C95.9198293,51.5289491 96.4105353,52.6042653 97.3919616,53.3785046 C98.3733881,54.1527439 100.016186,54.7119085 102.320405,55.0560148 L110.769164,56.4754465 C115.206919,57.2066726 118.545852,58.6368433 120.786065,60.7660013 C123.026278,62.8951595 124.146367,65.701735 124.146367,69.1858119 C124.146367,73.5731681 122.428897,77.0786991 118.993904,79.7025103 C115.558911,82.3263214 110.982545,83.6382071 105.26467,83.6382071 C101.680329,83.6382071 98.1493806,82.9500047 94.671717,81.5735792 C91.1940536,80.1971539 88.1111408,78.2830909 85.4228856,75.831333 Z M128.966001,82.9930109 L128.966001,49.3782882 L137.734789,49.3782882 L137.734789,52.0235925 C139.01491,50.9482603 140.43369,50.1310198 141.991172,49.5718469 C143.548653,49.0126742 145.244788,48.7330919 147.079629,48.7330919 C150.919994,48.7330919 154.077579,49.9804589 156.552481,52.4752301 C159.027382,54.9700012 160.264815,58.1744436 160.264815,62.0886536 L160.264815,82.9930109 L151.496026,82.9930109 L151.496026,63.3790461 C151.496026,61.2713945 150.866642,59.5723947 149.607856,58.2819959 C148.34907,56.991597 146.67427,56.3464073 144.583405,56.3464073 C143.1326,56.3464073 141.820495,56.6367425 140.647051,57.2174221 C139.473606,57.7981017 138.502862,58.6260951 137.734789,59.7014275 L137.734789,82.9930109 L128.966001,82.9930109 Z M177.309547,83.5736875 C173.725207,83.5736875 170.802307,82.616656 168.540759,80.7025644 C166.279211,78.7884728 165.148454,76.3044921 165.148454,73.2505482 C165.148454,70.0675641 166.364551,67.5728304 168.796782,65.7662722 C171.229012,63.9597136 174.578613,63.056448 178.845685,63.056448 C180.211148,63.056448 181.57659,63.1639795 182.942054,63.3790461 C184.307516,63.5941125 185.651624,63.9167075 186.974416,64.3468402 L186.974416,61.9596144 C186.974416,60.0240159 186.377035,58.561586 185.182255,57.57228 C183.987475,56.5829743 182.238002,56.0883288 179.933783,56.0883288 C178.525649,56.0883288 177.000194,56.3141452 175.357371,56.7657848 C173.714549,57.2174245 171.847733,57.91638 169.756868,58.8626725 L166.55658,52.3461906 C169.159494,51.1418185 171.687696,50.2385529 174.141262,49.6363667 C176.594828,49.0341805 179.016355,48.7330919 181.405915,48.7330919 C185.88634,48.7330919 189.374619,49.8191612 191.870856,51.9913327 C194.367093,54.1635042 195.615193,57.2281556 195.615193,61.1853788 L195.615193,82.9930109 L186.974416,82.9930109 L186.974416,80.6703046 C185.566282,81.6596104 184.083497,82.3908255 182.526016,82.8639717 C180.968535,83.337118 179.229729,83.5736875 177.309547,83.5736875 Z M173.533208,73.0569892 C173.533208,74.347388 174.087918,75.3689386 175.197357,76.1216713 C176.306796,76.874404 177.778913,77.2507646 179.613754,77.2507646 C181.064559,77.2507646 182.397998,77.0679609 183.614114,76.702348 C184.830229,76.3367348 185.950319,75.8098298 186.974416,75.1216171 L186.974416,70.0890867 C185.907648,69.6589537 184.787559,69.3471119 183.614114,69.1535521 C182.440669,68.9599924 181.213904,68.8632138 179.933783,68.8632138 C177.928259,68.8632138 176.360134,69.2395746 175.22936,69.9923074 C174.098586,70.7450398 173.533208,71.7665904 173.533208,73.0569892 Z M202.098976,96.4776119 L202.098976,49.3782882 L210.739753,49.3782882 L210.739753,52.1526319 C212.062545,51.0772995 213.534663,50.2708122 215.15615,49.7331461 C216.777637,49.19548 218.463105,48.9266509 220.212604,48.9266509 C222.559494,48.9266509 224.76767,49.3782837 226.8372,50.281563 C228.90673,51.184842 230.709541,52.4107026 232.245686,53.9591813 C233.781832,55.50766 234.987262,57.3356976 235.862011,59.4433492 C236.736761,61.5510006 237.174129,63.8091647 237.174129,66.2179094 C237.174129,68.6266539 236.726094,70.8848182 235.830009,72.9924696 C234.933924,75.1001213 233.717826,76.9281589 232.181681,78.4766376 C230.645535,80.0251163 228.821389,81.2402234 226.709189,82.1219961 C224.596988,83.0037688 222.346142,83.4446484 219.956581,83.4446484 C218.335094,83.4446484 216.745634,83.218832 215.188153,82.7671924 C213.630672,82.3155527 212.190557,81.6596098 210.867764,80.7993438 L210.867764,96.4776119 L202.098976,96.4776119 Z M218.804478,56.4754465 C217.225661,56.4754465 215.753544,56.7442756 214.388081,57.2819417 C213.022618,57.819608 211.849191,58.6045887 210.867764,59.636908 L210.867764,72.8634305 C211.80652,73.809723 212.96928,74.5624444 214.356078,75.1216171 C215.742876,75.6807901 217.225661,75.9603721 218.804478,75.9603721 C221.535404,75.9603721 223.839588,75.0248469 225.717099,73.1537686 C227.594611,71.2826904 228.533353,68.9707602 228.533353,66.2179094 C228.533353,63.4650584 227.583943,61.1531284 225.685097,59.28205 C223.78625,57.4109716 221.492733,56.4754465 218.804478,56.4754465 Z" id="Snap" fill="#E51916"></path>
            <path d="M291.350008,59.8614408 C291.350008,63.2197261 290.78556,66.3489907 289.656649,69.2493281 C288.527735,72.1496657 286.972842,74.6356317 284.99192,76.7073014 C283.010999,78.7789709 280.636056,80.4144751 277.867027,81.6138627 C275.097995,82.8132505 272.116007,83.4129353 268.920973,83.4129353 C265.598136,83.4129353 262.488348,82.8023471 259.591516,81.5811523 C256.694685,80.3599577 254.191945,78.6917434 252.083222,76.5764597 C249.974498,74.4611762 248.302454,71.9643065 247.067042,69.0857762 C245.831627,66.2072456 245.21393,63.1106913 245.21393,59.79602 C245.21393,56.4813485 245.820976,53.3847942 247.035089,50.5062636 C248.249205,47.6277333 249.910598,45.1308639 252.019319,43.0155801 C254.128043,40.9002964 256.630783,39.2320821 259.527617,38.0108875 C262.424448,36.7896927 265.512935,36.1791045 268.793173,36.1791045 C272.499414,36.1791045 275.992599,36.9423399 279.272834,38.4688331 C282.553073,39.9953265 285.25816,42.0887718 287.388186,44.7492318 L280.934246,50.8333679 C279.358028,48.9143475 277.536885,47.4423939 275.470762,46.4174626 C273.404639,45.3925314 271.178798,44.8800733 268.793173,44.8800733 C266.79095,44.8800733 264.927206,45.261691 263.201889,46.0249376 C261.47657,46.7881844 259.985574,47.8349069 258.728861,49.1651371 C257.472147,50.4953669 256.49235,52.0654509 255.789444,53.8754358 C255.086535,55.6854208 254.735086,57.6589293 254.735086,59.79602 C254.735086,61.9331108 255.097186,63.9175223 255.821394,65.7493144 C256.545602,67.5811065 257.546698,69.1620936 258.82471,70.4923238 C260.102726,71.8225536 261.625669,72.8692764 263.393589,73.632523 C265.161509,74.3957696 267.046552,74.7773873 269.048772,74.7773873 C272.201208,74.7773873 274.916947,73.8833117 277.196074,72.0951336 C279.475198,70.3069558 280.891643,68.0172501 281.445448,65.2259478 L268.218069,65.2259478 L268.218069,56.9829249 L291.350008,56.9829249 L291.350008,59.8614408 Z M326.769994,78.4409531 C324.72517,80.1419029 322.627128,81.384886 320.475806,82.1699396 C318.324482,82.9549935 315.92824,83.3475146 313.287011,83.3475146 C310.773583,83.3475146 308.419943,82.8895733 306.22602,81.9736774 C304.032095,81.0577812 302.136401,79.814798 300.538884,78.2446905 C298.941367,76.6745831 297.684671,74.8101086 296.768761,72.6512106 C295.852851,70.4923128 295.394904,68.1698971 295.394904,65.6838937 C295.394904,63.241504 295.831552,60.940895 296.704861,58.7819973 C297.578171,56.6230995 298.781617,54.7477214 300.315232,53.1558069 C301.848849,51.5638924 303.669992,50.3100059 305.778716,49.3941097 C307.887439,48.4782138 310.13458,48.0202728 312.520207,48.0202728 C314.863234,48.0202728 317.046474,48.4891172 319.069997,49.4268204 C321.093519,50.3645233 322.840111,51.6402166 324.309829,53.253938 C325.779543,54.8676598 326.929741,56.7975545 327.760449,59.0436805 C328.591158,61.2898066 329.006507,63.7212558 329.006507,66.3381018 L329.006507,68.6932511 L304.213156,68.6932511 C304.809562,70.8303418 305.959759,72.5530794 307.663777,73.8614959 C309.367797,75.1699187 311.369999,75.8241204 313.670415,75.8241204 C315.118831,75.8241204 316.482024,75.5842466 317.760039,75.1044913 C319.038052,74.6247364 320.124349,73.9487279 321.018958,73.076446 L326.769994,78.4409531 Z M312.328505,55.4128251 C310.326285,55.4128251 308.600991,56.0343167 307.152576,57.2773185 C305.704157,58.5203201 304.703061,60.1885344 304.149257,62.2820109 L320.443854,62.2820109 C319.890049,60.2757625 318.878302,58.6293551 317.408587,57.3427393 C315.93887,56.0561234 314.245527,55.4128251 312.328505,55.4128251 Z M334.201608,82.6933062 L334.201608,48.6090601 L342.955961,48.6090601 L342.955961,51.2913135 C344.233976,50.2009613 345.650421,49.3723056 347.205337,48.8053224 C348.760253,48.2383391 350.453597,47.9548517 352.285417,47.9548517 C356.11946,47.9548517 359.271846,49.2196417 361.742675,51.7492593 C364.213502,54.278877 365.448898,57.5280785 365.448898,61.4969613 L365.448898,82.6933062 L356.694546,82.6933062 L356.694546,62.8053775 C356.694546,60.6682867 356.066198,58.9455558 354.809482,57.637133 C353.552768,56.3287101 351.880727,55.6745084 349.793302,55.6745084 C348.344886,55.6745084 347.034942,55.9688991 345.86343,56.5576894 C344.691915,57.1464797 343.722769,57.9860384 342.955961,59.0763909 L342.955961,82.6933062 L334.201608,82.6933062 Z M401.763487,78.4409531 C399.718666,80.1419029 397.620624,81.384886 395.4693,82.1699396 C393.317975,82.9549935 390.921736,83.3475146 388.280507,83.3475146 C385.767077,83.3475146 383.413436,82.8895733 381.219513,81.9736774 C379.025588,81.0577812 377.129897,79.814798 375.53238,78.2446905 C373.93486,76.6745831 372.678165,74.8101086 371.762255,72.6512106 C370.846345,70.4923128 370.388398,68.1698971 370.388398,65.6838937 C370.388398,63.241504 370.825046,60.940895 371.698355,58.7819973 C372.571664,56.6230995 373.77511,54.7477214 375.308728,53.1558069 C376.842345,51.5638924 378.663488,50.3100059 380.772209,49.3941097 C382.880933,48.4782138 385.128076,48.0202728 387.513701,48.0202728 C389.856727,48.0202728 392.039968,48.4891172 394.06349,49.4268204 C396.087012,50.3645233 397.833607,51.6402166 399.303322,53.253938 C400.773039,54.8676598 401.923234,56.7975545 402.753943,59.0436805 C403.584654,61.2898066 404,63.7212558 404,66.3381018 L404,68.6932511 L379.20665,68.6932511 C379.803058,70.8303418 380.953253,72.5530794 382.657273,73.8614959 C384.361291,75.1699187 386.363493,75.8241204 388.663908,75.8241204 C390.112324,75.8241204 391.47552,75.5842466 392.753533,75.1044913 C394.031548,74.6247364 395.117843,73.9487279 396.012454,73.076446 L401.763487,78.4409531 Z M387.322001,55.4128251 C385.319778,55.4128251 383.594485,56.0343167 382.146069,57.2773185 C380.697653,58.5203201 379.696557,60.1885344 379.14275,62.2820109 L395.43735,62.2820109 C394.883542,60.2757625 393.871798,58.6293551 392.402081,57.3427393 C390.932363,56.0561234 389.23902,55.4128251 387.322001,55.4128251 Z" id="Gene" fill="#171B1C"></path>
        </g>
        <g id="Dotmatics_qualifier" transform="translate(190.000000, 102.000000)" fill="#000000" fill-rule="nonzero">
            <path d="M3.18624,24.429 L3.18624,26.656 L0.0128,26.656 L0.0128,2.414 L3.18624,2.414 L3.18624,12.002 C4.69556774,10.2959581 6.85916211,9.32408555 9.128,9.333 C13.8399131,9.54085031 17.5537896,13.4485401 17.5537896,18.1985 C17.5537896,22.9484599 13.8399131,26.8561497 9.128,27.0640355 C6.86667062,27.0707542 4.70810188,26.1134909 3.18624,24.429 L3.18624,24.429 Z M8.89168,24.021 C11.2521265,24.0624314 13.4025164,22.6604867 14.3313151,20.4746348 C15.2601137,18.2887828 14.7824122,15.7541919 13.1229193,14.0631231 C11.4634265,12.3720543 8.95252073,11.8611724 6.77132189,12.7707942 C4.59012305,13.6804159 3.17287286,15.8294501 3.18624,18.207 C3.11458731,19.7580473 3.69032419,21.2685864 4.7740848,22.3729682 C5.85784541,23.47735 7.35084487,24.0749101 8.89168,24.021 L8.89168,24.021 Z" id="Shape"></path>
            <polygon id="Path" points="21.9568 9.741 27.0208 22.253 31.96664 9.741 35.34264 9.741 25.60288 33.167 22.22688 33.167 25.31592 25.959 18.56392 9.741"></polygon>
            <path d="M67.8871421,17.476 C67.8736145,13.5880757 70.1885944,10.0753228 73.7512982,8.57793259 C77.3140021,7.0805424 81.4216468,7.89389185 84.1562713,10.6382079 C86.8908959,13.382524 87.713065,17.5164598 86.2388876,21.1097782 C84.7647103,24.7030967 81.2849843,27.0469756 77.42448,27.047 C74.8940476,27.0697918 72.4601924,26.0698422 70.6676651,24.2709622 C68.8751379,22.4720822 67.8736224,20.0244861 67.8871421,17.476 L67.8871421,17.476 Z M77.42448,23.205 C79.7503068,23.2882068 81.8931911,21.9403699 82.8395078,19.7990418 C83.7858245,17.6577137 83.3458697,15.1521567 81.7277505,13.467547 C80.1096313,11.7829373 77.6377246,11.256981 75.4812895,12.1384654 C73.3248543,13.0199498 71.9161815,15.1321678 71.9216,17.476 C71.8807114,18.9752945 72.4412897,20.4279599 73.4767501,21.5059687 C74.5122106,22.5839774 75.9352317,23.1964199 77.42448,23.205 L77.42448,23.205 Z" id="Shape"></path>
            <path d="M88.2108,8.364 L91.5868,8.364 L91.5868,3.519 L95.68864,3.519 L95.68864,8.364 L100.5332,8.364 L100.5332,11.9 L95.68864,11.9 L95.68864,20.094 C95.5726786,20.8448259 95.8119808,21.6070708 96.3354542,22.1542856 C96.8589276,22.7015005 97.6063516,22.9707333 98.35568,22.882 L100.5332,22.882 L100.5332,26.486 L97.8324,26.486 C93.6968,26.486 91.5868,24.565 91.5868,20.383 L91.5868,11.9 L88.2108,11.9 L88.2108,8.364 Z" id="Path"></path>
            <path d="M103.9092,8.364 L108.298,8.364 L108.298,10.064 C109.641509,8.71262368 111.463174,7.95431588 113.362,7.956 C115.508088,7.90720218 117.523867,8.98992702 118.6792,10.812 C120.269426,8.94919327 122.604292,7.90132586 125.04296,7.956 C129.1448,7.956 131.79496,10.778 131.79496,15.283 L131.79496,26.622 L127.6256,26.622 L127.6256,16.252 C127.6256,13.498 126.25832,11.781 123.92888,11.781 C122.777157,11.774688 121.677207,12.262376 120.904067,13.1221195 C120.130928,13.981863 119.75769,15.1323842 119.87768,16.286 L119.87768,26.622 L115.77584,26.622 L115.77584,16.252 C115.77584,13.464 114.32416,11.781 111.9272,11.781 C109.9016,11.781 108.01104,13.277 108.01104,16.575 L108.01104,26.622 L103.9092,26.622 L103.9092,8.364 Z" id="Path"></path>
            <path d="M134.39448,21.471 C134.39448,17.884 137.34848,15.402 142.83448,15.402 L146.09232,15.402 L146.09232,14.943 C146.173957,13.9522327 145.820924,12.9751158 145.126154,12.2688674 C144.431384,11.562619 143.464491,11.1980024 142.48,11.271 C140.585544,11.1285936 138.910757,12.5018301 138.66512,14.399 L134.5464,14.399 C134.7152,10.557 137.9224,7.888 142.51376,7.888 C147.32456,7.888 150.27856,10.812 150.27856,15.317 L150.27856,26.554 L146.24424,26.554 L146.24424,24.667 C144.960891,26.1384909 143.124405,27.0016102 141.18024,27.047 C137.04464,27.047 134.39448,24.854 134.39448,21.471 Z M141.45032,23.8 C142.766847,23.7923185 144.023151,23.2434742 144.928247,22.28059 C145.833343,21.3177059 146.308709,20.0243179 146.24424,18.7 L146.24424,18.394 L143.00328,18.394 C139.99864,18.394 138.41192,19.397 138.41192,21.301 C138.41192,22.797 139.49224,23.8 141.45032,23.8 Z" id="Shape"></path>
            <path d="M152.11848,8.364 L155.49448,8.364 L155.49448,3.519 L159.59632,3.519 L159.59632,8.364 L164.44088,8.364 L164.44088,11.9 L159.59632,11.9 L159.59632,20.094 C159.481489,20.841549 159.71873,21.6003326 160.238134,22.1467519 C160.757538,22.6931711 161.499908,22.9649498 162.24648,22.882 L164.44088,22.882 L164.44088,26.486 L161.74008,26.486 C157.60448,26.486 155.49448,24.565 155.49448,20.383 L155.49448,11.9 L152.11848,11.9 L152.11848,8.364 Z" id="Path"></path>
            <path d="M166.93912,0.544 L171.29416,0.544 L171.29416,5.1 L166.93912,5.1 L166.93912,0.544 Z M171.19288,8.364 L171.19288,26.554 L167.09104,26.554 L167.09104,8.364 L171.19288,8.364 Z" id="Shape"></path>
            <path d="M174.95712,21.794 C174.312281,20.4478694 173.983096,18.9705487 173.99496,17.476 C173.949187,14.9310787 174.928182,12.4758605 176.708933,10.6696405 C178.489683,8.86342061 180.920541,7.86001567 183.44776,7.888 C187.643492,7.73640172 191.311939,10.7137544 192.05656,14.875 L187.8872,14.875 C187.247817,12.9351193 185.407854,11.6581155 183.38024,11.747 C180.417201,11.9773998 178.129585,14.4660158 178.129585,17.459 C178.129585,20.4519842 180.417201,22.9406002 183.38024,23.171 C185.459066,23.2642391 187.332918,21.9172605 187.92096,19.907 L192.05656,19.907 C191.443765,24.1662253 187.715946,27.2580181 183.44776,27.047 C179.866842,27.0713569 176.587722,25.0304543 175.00776,21.794" id="Path"></path>
            <path d="M194.31848,20.978 L198.184,20.978 C198.289076,21.838996 198.731875,22.6218482 199.413659,23.1519908 C200.095442,23.6821333 200.959515,23.9154809 201.8132,23.8 C203.85568,23.8 205.03728,22.797 205.03728,21.471 C205.03728,17.595 194.65608,20.315 194.65608,13.532 C194.65608,10.132 197.49192,7.888 201.40808,7.888 C205.32424,7.888 208.32888,9.809 208.68336,13.464 L204.66592,13.464 C204.323071,11.8996963 202.872791,10.8407685 201.28992,10.999 C199.77072,10.999 198.40344,11.679 198.40344,13.124 C198.40344,16.745 208.93656,13.906 208.93656,20.978 C208.93656,24.548 205.98256,27.047 201.7288,27.047 C197.47504,27.047 194.60544,24.82 194.31848,20.978 Z" id="Path"></path>
            <path d="M53.6912,0.51 L45.2512,0.51 L45.2512,4.641 L54.01192,4.641 C56.276702,4.65124972 58.437816,5.59823611 59.9890373,7.26013477 C61.5402587,8.92203342 62.3453049,11.1528382 62.2156,13.43 C62.2156,18.53 58.73832,22.423 54.01192,22.423 L49.57248,22.423 L49.57248,17.952 L45.2512,17.952 L45.2512,26.554 L53.6912,26.554 C60.8322858,26.554 66.6212795,20.7238518 66.6212795,13.532 C66.6212795,6.3401482 60.8322858,0.51 53.6912,0.51 Z" id="Path"></path>
            <rect id="Rectangle" x="45.18368" y="9.078" width="4.33816" height="4.369"></rect>
        </g>
    </g>
</svg>